<mxfile host="app.diagrams.net" modified="2021-05-21T10:01:38.722Z" agent="5.0 (Windows NT 10.0; Win64; x64) AppleWebKit/537.36 (KHTML, like Gecko) Chrome/90.0.4430.212 Safari/537.36" etag="vGfEB6M91WAWPP6ksp5I" version="14.6.13" type="github">
  <diagram id="uojc08jRMCRPoiRyNP8_" name="Page-1">
    <mxGraphModel dx="868" dy="492" grid="1" gridSize="10" guides="1" tooltips="1" connect="1" arrows="1" fold="1" page="1" pageScale="1" pageWidth="827" pageHeight="1169" math="0" shadow="0">
      <root>
        <mxCell id="0" />
        <mxCell id="1" parent="0" />
        <mxCell id="0tz4_MMdnnRoiF3L_TxC-7" style="edgeStyle=orthogonalEdgeStyle;rounded=0;orthogonalLoop=1;jettySize=auto;html=1;entryX=0.5;entryY=0;entryDx=0;entryDy=0;" edge="1" parent="1" source="0tz4_MMdnnRoiF3L_TxC-1" target="0tz4_MMdnnRoiF3L_TxC-3">
          <mxGeometry relative="1" as="geometry" />
        </mxCell>
        <mxCell id="0tz4_MMdnnRoiF3L_TxC-1" value="Catu daya" style="rounded=0;whiteSpace=wrap;html=1;" vertex="1" parent="1">
          <mxGeometry x="325" y="90" width="120" height="40" as="geometry" />
        </mxCell>
        <mxCell id="0tz4_MMdnnRoiF3L_TxC-8" style="edgeStyle=orthogonalEdgeStyle;rounded=0;orthogonalLoop=1;jettySize=auto;html=1;entryX=0;entryY=0.5;entryDx=0;entryDy=0;" edge="1" parent="1" source="0tz4_MMdnnRoiF3L_TxC-2" target="0tz4_MMdnnRoiF3L_TxC-3">
          <mxGeometry relative="1" as="geometry" />
        </mxCell>
        <mxCell id="0tz4_MMdnnRoiF3L_TxC-2" value="Sensor DHT11, Sensor LDR, Sensor API" style="rounded=0;whiteSpace=wrap;html=1;" vertex="1" parent="1">
          <mxGeometry x="120" y="190" width="120" height="50" as="geometry" />
        </mxCell>
        <mxCell id="0tz4_MMdnnRoiF3L_TxC-9" style="edgeStyle=orthogonalEdgeStyle;rounded=0;orthogonalLoop=1;jettySize=auto;html=1;entryX=0;entryY=0.5;entryDx=0;entryDy=0;" edge="1" parent="1" source="0tz4_MMdnnRoiF3L_TxC-3" target="0tz4_MMdnnRoiF3L_TxC-4">
          <mxGeometry relative="1" as="geometry" />
        </mxCell>
        <mxCell id="0tz4_MMdnnRoiF3L_TxC-3" value="Arduino Uno" style="rounded=0;whiteSpace=wrap;html=1;" vertex="1" parent="1">
          <mxGeometry x="320" y="190" width="130" height="50" as="geometry" />
        </mxCell>
        <mxCell id="0tz4_MMdnnRoiF3L_TxC-12" style="edgeStyle=orthogonalEdgeStyle;rounded=0;orthogonalLoop=1;jettySize=auto;html=1;entryX=0;entryY=0.5;entryDx=0;entryDy=0;" edge="1" parent="1" source="0tz4_MMdnnRoiF3L_TxC-4" target="0tz4_MMdnnRoiF3L_TxC-6">
          <mxGeometry relative="1" as="geometry" />
        </mxCell>
        <mxCell id="0tz4_MMdnnRoiF3L_TxC-4" value="Driver L298 N" style="rounded=0;whiteSpace=wrap;html=1;" vertex="1" parent="1">
          <mxGeometry x="490" y="190" width="120" height="50" as="geometry" />
        </mxCell>
        <mxCell id="0tz4_MMdnnRoiF3L_TxC-5" value="LCD" style="rounded=0;whiteSpace=wrap;html=1;" vertex="1" parent="1">
          <mxGeometry x="490" y="290" width="120" height="50" as="geometry" />
        </mxCell>
        <mxCell id="0tz4_MMdnnRoiF3L_TxC-6" value="Motor DC" style="rounded=0;whiteSpace=wrap;html=1;" vertex="1" parent="1">
          <mxGeometry x="660" y="190" width="120" height="50" as="geometry" />
        </mxCell>
        <mxCell id="0tz4_MMdnnRoiF3L_TxC-10" value="" style="endArrow=classic;html=1;entryX=0;entryY=0.5;entryDx=0;entryDy=0;exitX=1;exitY=0.5;exitDx=0;exitDy=0;" edge="1" parent="1" source="0tz4_MMdnnRoiF3L_TxC-3" target="0tz4_MMdnnRoiF3L_TxC-5">
          <mxGeometry width="50" height="50" relative="1" as="geometry">
            <mxPoint x="470" y="210" as="sourcePoint" />
            <mxPoint x="440" y="260" as="targetPoint" />
            <Array as="points">
              <mxPoint x="470" y="215" />
              <mxPoint x="470" y="315" />
            </Array>
          </mxGeometry>
        </mxCell>
      </root>
    </mxGraphModel>
  </diagram>
</mxfile>
